<svg xmlns="http://www.w3.org/2000/svg" viewBox="0 0 438.72 438.72" preserveAspectRatio="xMinYMin meet"><title>RSS Icon</title><path d="M52 1.719c-27.614 0-50 22.386-50 50v335c0 27.614 22.386 50 50 50h335c27.614 0 50-22.386 50-50v-335c0-27.614-22.386-50-50-50H52zm-7.375 44.156c193.145.675 349.56 157.04 350 350h-70.25c-.21-74.661-29.428-144.808-82.313-197.625-52.778-52.714-122.846-81.864-197.437-82.188V45.876zm0 119.313c127.175.906 230.092 103.668 231 230.687h-70.25c-.907-88.128-72.514-159.626-160.75-160.531v-70.156zm47.406 135.968c26.188 0 47.438 21.218 47.438 47.375 0 26.158-21.249 47.344-47.438 47.344-26.189 0-47.406-21.186-47.406-47.344 0-26.157 21.217-47.375 47.406-47.375z" fill="#fff"/></svg>