<svg xmlns="http://www.w3.org/2000/svg" xmlns:xlink="http://www.w3.org/1999/xlink" viewBox="0 0 438.72 438.72" preserveAspectRatio="xMinYMin meet">
<title>RSS Icon</title>
<path style="stroke:none; fill:rgb(255,255,255);" d="M 52 1.71875 C 24.385762 1.71875 2 24.10451 2 51.71875 L 2 386.71875 C 2 414.33299 24.385762 436.71875 52 436.71875 L 387 436.71875 C 414.61424 436.71875 437 414.33299 437 386.71875 L 437 51.71875 C 437 24.10451 414.61424 1.71875 387 1.71875 L 52 1.71875 z M 44.625 45.875 C 237.76977 46.54952 394.18526 202.91456 394.625 395.875 L 324.375 395.875 C 324.16407 321.21371 294.94666 251.06687 242.0625 198.25 C 189.2838 145.53592 119.21569 116.38617 44.625 116.0625 L 44.625 45.875 z M 44.625 165.1875 C 171.80045 166.09393 274.71744 268.85558 275.625 395.875 L 205.375 395.875 C 204.46829 307.7472 132.86139 236.24933 44.625 235.34375 L 44.625 165.1875 z M 92.03125 301.15625 C 118.21944 301.15625 139.46875 322.37385 139.46875 348.53125 C 139.46875 374.68865 118.22029 395.875 92.03125 395.875 C 65.84222 395.875 44.625 374.68865 44.625 348.53125 C 44.625 322.37385 65.84222 301.15625 92.03125 301.15625 z"/>
</svg>
